# File created by Blade
# Date/Time:  Tue Apr 07 20:57:01 2015
#---------------------------------------------------------
:version 1.10
:name HOM
:units
  mass 1.0
  length 1.000000
  angle deg
:documentation
     Acclaim Skeleton File
:root
   axis xyz
   order TX TY TZ RX RY RZ
   position 0.000000 0.000000 0.000000
   orientation 0 0 0
:bonedata
   begin
      id 1
      name Spine_dum
      direction 0.000000 1.000000 0.000000
      length 4.885285
      axis 0.0 0.0 0.0 xyz
   end
   begin
      id 2
      name LeftUpLeg_dum
      direction 1.000000 0.000000 0.000000
      length 2.672193
      axis 0.0 0.0 0.0 xyz
   end
   begin
      id 3
      name RightUpLeg_dum
      direction -1.000000 0.000000 0.000000
      length 2.672193
      axis 0.0 0.0 0.0 xyz
   end
   begin
      id 4
      name Spine
      direction 0.000000 1.000000 0.000000
      length 0.000000
      axis 0.0 0.0 0.0 xyz
      dof rx ry rz
   end
   begin
      id 5
      name Spine_dum1
      direction 0.000000 1.000000 0.000000
      length 16.494159
      axis 0.0 0.0 0.0 xyz
   end
   begin
      id 6
      name Spine_dum2
      direction 0.000000 1.000000 0.000000
      length 10.663448
      axis 0.0 0.0 0.0 xyz
   end
   begin
      id 7
      name Spine_dum3
      direction 0.000000 1.000000 0.000000
      length 10.663448
      axis 0.0 0.0 0.0 xyz
   end
   begin
      id 8
      name Head
      direction 0.000000 1.000000 0.000000
      length 4.527550
      axis 0.0 0.0 0.0 xyz
      dof rx ry rz
   end
   begin
      id 9
      name LeftShoulder
      direction 1.000000 0.000000 0.000000
      length 7.531907
      axis 0.0 0.0 -90.0 xyz
      dof rx ry rz
   end
   begin
      id 10
      name LeftArm
      direction 1.000000 0.000000 0.000000
      length 10.229199
      axis 0.0 0.0 -90.0 xyz
      dof rx ry rz
   end
   begin
      id 11
      name LeftForeArm
      direction 1.000000 0.000000 0.000000
      length 8.673495
      axis 0.0 0.0 -90.0 xyz
      dof ry rz rx
   end
   begin
      id 12
      name LeftHand
      direction 0.000000 0.000000 0.000000
      length 0.000000
      axis 0.0 0.0 -90.0 xyz
      dof rx ry rz
   end
   begin
      id 13
      name LeftHand_dum1
      direction 0.000000 0.000000 0.000000
      length 0.000000
      axis 0.0 0.0 -90.0 xyz
   end
   begin
      id 14
      name LeftHand_dum2
      direction 1.000000 0.000000 0.000000
      length 3.937000
      axis 0.0 0.0 -90.0 xyz
   end
   begin
      id 15
      name LeftHandThumb1
      direction 0.000000 0.000000 1.000000
      length 3.937000
      axis 0.0 0.0 -90.0 xyz
      dof rx rz ry
   end
   begin
      id 16
      name RightShoulder
      direction -1.000000 0.000000 0.000000
      length 7.531907
      axis 0.0 0.0 90.0 xyz
      dof rx ry rz
   end
   begin
      id 17
      name RightArm
      direction -1.000000 0.000000 0.000000
      length 10.229199
      axis 0.0 0.0 90.0 xyz
      dof rx ry rz
   end
   begin
      id 18
      name RightForeArm
      direction -1.000000 0.000000 0.000000
      length 8.673495
      axis 0.0 0.0 90.0 xyz
      dof ry rz rx
   end
   begin
      id 19
      name RightHand
      direction 0.000000 0.000000 0.000000
      length 0.000000
      axis 0.0 0.0 90.0 xyz
      dof rx ry rz
   end
   begin
      id 20
      name RightHand_dum1
      direction 0.000000 0.000000 0.000000
      length 0.000000
      axis 0.0 0.0 90.0 xyz
   end
   begin
      id 21
      name RightHand_dum2
      direction -1.000000 0.000000 0.000000
      length 3.937000
      axis 0.0 0.0 90.0 xyz
   end
   begin
      id 22
      name RightHandThumb1
      direction 0.000000 0.000000 1.000000
      length 3.937000
      axis 0.0 0.0 90.0 xyz
      dof rx rz ry
   end
   begin
      id 23
      name LeftUpLeg
      direction 0.000000 -1.000000 0.000000
      length 16.263388
      axis 0.0 0.0 0.0 xyz
      dof rx ry rz
   end
   begin
      id 24
      name LeftLeg
      direction 0.000000 -1.000000 0.000000
      length 14.328163
      axis 0.0 0.0 0.0 xyz
      dof rx ry rz
   end
   begin
      id 25
      name LeftFoot
      direction 0.000000 -0.258819 0.965926
      length 5.031290
      axis 15.0 0.0 0.0 xyz
      dof rx ry rz
   end
   begin
      id 26
      name LeftToeBase
      direction 0.000000 0.000000 1.000000
      length 2.952750
      axis 0.0 0.0 0.0 xyz
      dof rx ry rz
   end
   begin
      id 27
      name RightUpLeg
      direction 0.000000 -1.000000 0.000000
      length 16.263388
      axis 0.0 0.0 0.0 xyz
      dof rx ry rz
   end
   begin
      id 28
      name RightLeg
      direction 0.000000 -1.000000 0.000000
      length 14.328163
      axis 0.0 0.0 0.0 xyz
      dof rx ry rz
   end
   begin
      id 29
      name RightFoot
      direction 0.000000 -0.258819 0.965926
      length 5.031290
      axis 15.0 0.0 0.0 xyz
      dof rx ry rz
   end
   begin
      id 30
      name RightToeBase
      direction 0.000000 0.000000 1.000000
      length 2.952750
      axis 0.0 0.0 0.0 xyz
      dof rx ry rz
   end
:hierarchy
   begin
      root Spine_dum LeftUpLeg_dum RightUpLeg_dum
      Spine_dum Spine
      LeftUpLeg_dum LeftUpLeg
      RightUpLeg_dum RightUpLeg
      Spine Spine_dum1 Spine_dum2 Spine_dum3
      Spine_dum1 Head
      Spine_dum2 LeftShoulder
      Spine_dum3 RightShoulder
      LeftShoulder LeftArm
      LeftArm LeftForeArm
      LeftForeArm LeftHand
      LeftHand LeftHand_dum1 LeftHand_dum2
      LeftHand_dum1 LeftHandThumb1
      RightShoulder RightArm
      RightArm RightForeArm
      RightForeArm RightHand
      RightHand RightHand_dum1 RightHand_dum2
      RightHand_dum1 RightHandThumb1
      LeftUpLeg LeftLeg
      LeftLeg LeftFoot
      LeftFoot LeftToeBase
      RightUpLeg RightLeg
      RightLeg RightFoot
      RightFoot RightToeBase
   end

# File created by Blade
# Date/Time:  Tue Apr 07 20:57:09 2015
# Frame Rate: 120.000 fps
#------------------------------------------------------
:FULLY-SPECIFIED
:DEGREES
214
root -9.479222 32.947055 3.568330 29.109337 -83.247281 -23.913879
Spine -0.451991 -5.246196 4.099923
Head 31.387111 1.764353 -3.424383
LeftShoulder -15.866060 41.298347 9.678667
LeftArm 63.686913 -2.177022 -76.194264
LeftForeArm -20.375948 -0.000000 5.289319
LeftHand 2.089943 -0.000000 -17.925250
LeftHandThumb1 -26.253704 0.000000 33.147579
RightShoulder -2.154641 -2.304998 -20.429653
RightArm 23.914517 -11.652466 80.976903
RightForeArm 9.594899 -0.000000 10.565867
RightHand 5.180719 -0.000000 14.437839
RightHandThumb1 -24.326973 -0.000000 -32.862282
LeftUpLeg -29.810972 -8.537398 9.942553
LeftLeg 7.249153 -0.000000 -0.000000
LeftFoot 16.804285 18.015496 -12.225188
LeftToeBase -8.889674 -0.000000 0.000000
RightUpLeg -0.585551 12.165215 6.632719
RightLeg 7.532417 -0.000000 -0.000000
RightFoot -8.274980 1.336115 2.086609
RightToeBase -10.776276 -0.000000 0.000000
215
root -9.670323 32.939137 3.648388 30.704609 -83.606744 -25.708060
Spine -0.381272 -5.174253 4.209429
Head 31.647009 1.876818 -3.608673
LeftShoulder -15.956569 41.299391 9.677899
LeftArm 63.959995 -2.825830 -75.974489
LeftForeArm -20.258443 0.000000 5.098342
LeftHand 2.102669 -0.000000 -17.985997
LeftHandThumb1 -26.253704 0.000000 33.147579
RightShoulder -2.139678 -2.141816 -20.595457
RightArm 24.172860 -11.335643 80.360209
RightForeArm 9.486404 -0.000000 10.698092
RightHand 5.145243 -0.000000 14.439771
RightHandThumb1 -24.326973 -0.000000 -32.862282
LeftUpLeg -29.838534 -7.612805 9.562054
LeftLeg 6.375437 -0.000000 -0.000000
LeftFoot 18.316212 18.338984 -12.902533
LeftToeBase -8.229686 -0.000000 0.000000
RightUpLeg 0.023413 12.512964 6.679322
RightLeg 7.454351 -0.000000 -0.000000
RightFoot -8.322848 1.223206 1.972816
RightToeBase -10.958249 -0.000000 0.000000
216
root -9.862569 32.929860 3.735178 31.903099 -83.984560 -27.087286
Spine -0.329378 -5.092515 4.248310
Head 31.908152 1.965862 -3.798727
LeftShoulder -16.025720 41.281730 9.699592
LeftArm 64.179079 -3.559668 -75.898956
LeftForeArm -19.880004 -0.000000 4.988802
LeftHand 1.986807 0.000000 -18.101390
LeftHandThumb1 -26.253704 0.000000 33.147579
RightShoulder -2.120427 -1.934694 -20.753359
RightArm 24.383076 -11.000520 79.748214
RightForeArm 9.483389 0.000000 10.777916
RightHand 5.193165 -0.000000 14.249237
RightHandThumb1 -24.326973 -0.000000 -32.862282
LeftUpLeg -29.828528 -6.788128 9.141257
LeftLeg 5.481572 -0.000000 -0.000000
LeftFoot 19.783708 18.574516 -13.231574
LeftToeBase -7.197522 -0.000000 0.000000
RightUpLeg 0.617035 12.856771 6.649057
RightLeg 7.397809 -0.000000 -0.000000
RightFoot -8.378191 1.108289 1.876449
RightToeBase -11.366280 -0.000000 0.000000
217
root -10.058740 32.919315 3.820121 33.489706 -84.310426 -28.845987
Spine -0.300130 -5.017638 4.323018
Head 32.174127 2.017396 -3.975401
LeftShoulder -16.046001 41.243637 9.771968
LeftArm 64.374394 -4.264343 -75.784953
LeftForeArm -19.676322 0.000000 4.842464
LeftHand 2.128217 -0.000000 -18.202692
LeftHandThumb1 -26.253704 0.000000 33.147579
RightShoulder -2.107116 -1.764141 -20.894030
RightArm 24.625002 -10.629099 79.097698
RightForeArm 9.495352 -0.000000 10.847063
RightHand 5.175058 -0.000000 14.454026
RightHandThumb1 -24.326973 -0.000000 -32.862282
LeftUpLeg -29.828727 -5.984422 8.760608
LeftLeg 4.656120 -0.000000 -0.000000
LeftFoot 21.259566 18.768887 -13.823463
LeftToeBase -7.144976 -0.000000 0.000000
RightUpLeg 1.181921 13.139589 6.654844
RightLeg 7.381870 -0.000000 -0.000000
RightFoot -8.523542 0.960387 1.653961
RightToeBase -11.289089 -0.000000 0.000000
218
root -10.259851 32.906303 3.902375 35.330872 -84.596335 -30.871639
Spine -0.262005 -4.974301 4.408630
Head 32.427879 2.091952 -4.133904
LeftShoulder -16.240327 41.304172 9.697174
LeftArm 64.742824 -4.937427 -75.516750
LeftForeArm -19.542624 -0.000000 4.671548
LeftHand 2.149419 -0.000000 -18.343583
LeftHandThumb1 -26.253704 0.000000 33.147579
RightShoulder -2.061218 -1.550599 -21.036301
RightArm 24.810422 -10.007298 78.590214
RightForeArm 9.302363 -0.000000 10.855311
RightHand 5.220259 -0.000000 14.347377
RightHandThumb1 -24.326973 -0.000000 -32.862282
LeftUpLeg -29.796336 -5.237642 8.427720
LeftLeg 3.808773 -0.000000 -0.000000
LeftFoot 22.772984 18.861859 -14.321710
LeftToeBase -6.500408 -0.000000 0.000000
RightUpLeg 1.757311 13.383750 6.692255
RightLeg 7.394034 -0.000000 -0.000000
RightFoot -8.701387 0.930945 1.691131
RightToeBase -10.879885 -0.000000 0.000000
219
root -10.463576 32.893291 3.985781 37.165078 -84.846118 -32.850824
Spine -0.275572 -4.909031 4.499599
Head 32.694391 2.156242 -4.278864
LeftShoulder -16.315009 41.340176 9.714145
LeftArm 65.048442 -5.715447 -75.461549
LeftForeArm -19.166800 -0.000000 4.581751
LeftHand 2.166244 -0.000000 -18.445698
LeftHandThumb1 -26.253704 0.000000 33.147579
RightShoulder -2.067331 -1.375517 -21.172658
RightArm 25.021930 -9.471456 78.032980
RightForeArm 9.241965 -0.000000 10.864892
RightHand 5.258580 -0.000000 14.397967
RightHandThumb1 -24.326973 -0.000000 -32.862282
LeftUpLeg -29.803154 -4.593165 8.112254
LeftLeg 3.060128 -0.000000 -0.000000
LeftFoot 24.149460 18.697970 -14.152544
LeftToeBase -5.979030 -0.000000 0.000000
RightUpLeg 2.290795 13.481598 6.713185
RightLeg 7.374041 -0.000000 -0.000000
RightFoot -8.666972 0.856147 1.480490
RightToeBase -11.700724 -0.000000 0.000000
